<svg xmlns="http://www.w3.org/2000/svg" viewBox="0 0 68 18" fill="none">
<path d="M10.6112 17.237L4.30061 8.82809L10.5773 0.893385H15.6863L8.30992 9.8179L8.47911 7.67764L16.025 17.237H10.6112ZM0.189453 17.237V0.723029H4.63898V17.237H0.189453ZM37.6467 17.237V0.893887H42.0962V17.237H37.6467ZM42.0962 8.21099L40.3618 7.04362C40.5761 5.05295 41.168 3.47391 42.1374 2.30648C43.1068 1.13906 44.5001 0.555409 46.3172 0.555521C47.0514 0.542991 47.7805 0.678227 48.4613 0.953186C49.1178 1.23848 49.7007 1.66948 50.1659 2.21352L47.4086 5.41092C47.1581 5.13505 46.8462 4.92204 46.4981 4.78913C46.1122 4.65002 45.704 4.58263 45.2938 4.59029C44.3463 4.59029 43.5766 4.88567 42.9845 5.47641C42.3924 6.06716 42.0963 6.97869 42.0962 8.21099ZM58.6509 17.5747C57.2336 17.5949 55.8403 17.2076 54.6369 16.4588C53.4484 15.713 52.4793 14.665 51.8284 13.422C51.1299 12.0867 50.7765 10.5977 50.8006 9.09091C50.7749 7.57443 51.1282 6.07553 51.8284 4.73016C52.4797 3.48405 53.4485 2.43207 54.6369 1.68067C55.8384 0.926522 57.2323 0.535841 58.6507 0.555688C59.7424 0.536874 60.8224 0.78366 61.7975 1.2748C62.698 1.73248 63.4656 2.41415 64.0266 3.25425C64.5913 4.10599 64.9037 5.10012 64.9274 6.12182V12.0094C64.9041 13.0293 64.5967 14.0224 64.0396 14.877C63.4829 15.7208 62.7141 16.4034 61.8103 16.8563C60.8302 17.3465 59.7464 17.5932 58.6507 17.5754L58.6509 17.5747ZM59.4799 13.4805C60.7206 13.4805 61.7216 13.0673 62.483 12.2409C63.2444 11.4145 63.625 10.3557 63.6249 9.06444C63.6415 8.26838 63.4644 7.48021 63.1089 6.76774C62.7822 6.12362 62.281 5.58429 61.6625 5.21125C61.0039 4.82609 60.2512 4.63136 59.4884 4.64875C58.7339 4.63345 57.99 4.8282 57.3398 5.21125C56.7176 5.58817 56.2101 6.12779 55.8721 6.77192C55.504 7.47903 55.3193 8.26724 55.3349 9.06428C55.3191 9.86109 55.5022 10.6493 55.8677 11.3575C56.2041 12.0028 56.712 12.5428 57.3354 12.9181C57.9845 13.3003 58.7267 13.4951 59.4797 13.4811L59.4799 13.4805ZM63.3964 17.237V12.8468L64.107 8.8626L63.3964 4.91225V0.893887H67.8037V17.237H63.3964Z" fill="#20232B" style="fill:#20232B;fill:color(display-p3 0.1255 0.1373 0.1686);fill-opacity:1;"/>
<path d="M25.6213 0.398438C27.3607 0.398437 29.0609 0.914208 30.5071 1.88053C31.9533 2.84684 33.0805 4.22031 33.7461 5.82724C34.4117 7.43417 34.5859 9.20238 34.2466 10.9083C33.9072 12.6142 33.0697 14.1812 31.8398 15.4111C30.6099 16.641 29.0429 17.4785 27.337 17.8178C25.6311 18.1572 23.8629 17.983 22.2559 17.3174C20.649 16.6518 19.2756 15.5246 18.3092 14.0784C17.3429 12.6322 16.8271 10.932 16.8271 9.19263C16.8298 6.86107 17.7571 4.62575 19.4058 2.97709C21.0545 1.32842 23.2898 0.401053 25.6213 0.398438ZM25.6213 13.1291C26.3999 13.1291 27.161 12.8982 27.8083 12.4657C28.4557 12.0331 28.9602 11.4183 29.2581 10.699C29.5561 9.97975 29.634 9.18826 29.4821 8.42467C29.3303 7.66107 28.9553 6.95966 28.4048 6.40914C27.8543 5.85862 27.1529 5.48371 26.3893 5.33182C25.6257 5.17993 24.8342 5.25788 24.1149 5.55583C23.3956 5.85377 22.7808 6.35831 22.3483 7.00566C21.9158 7.653 21.6849 8.41407 21.6849 9.19263C21.6861 10.2363 22.1012 11.2368 22.8392 11.9748C23.5771 12.7128 24.5777 13.1279 25.6213 13.1291Z" fill="url(#paint0_linear_413_7182)" style=""/>
<defs>
<linearGradient id="paint0_linear_413_7182" x1="25.6213" y1="0.398438" x2="25.6213" y2="17.9868" gradientUnits="userSpaceOnUse">
<stop stop-color="#FF7702" style="stop-color:#FF7702;stop-color:color(display-p3 1.0000 0.4667 0.0078);stop-opacity:1;"/>
<stop offset="1" stop-color="#FE0000" style="stop-color:#FE0000;stop-color:color(display-p3 0.9961 0.0000 0.0000);stop-opacity:1;"/>
</linearGradient>
</defs>
</svg>